PathFileType	4	(X/Y/Z)	C:/Users/beibeiliu/ov580/test_trc/capture2\sequence.2_training_dense_right.trc
DataRate	CameraRate	NumFrames	NumMarkers	Units	OrigDataRate	OrigDataStartFrame	OrigNumFrames
120	120	24	19	mm	120	79	313
Frame#	Time	ThumbCMC			ThumbMCP			ThumbIP			ThumbTip			IndexMCP			IndexPIP			IndexTip			MiddleMCP			MiddlePIP			MiddleTip			RingMCP			RingPIP			RingTip			PinkyMCP			PinkyPIP			PinkyTip			BackHand1			BackHand2			BackHand3	
		X0	Y0	Z0	X1	Y1	Z1	X2	Y2	Z2	X3	Y3	Z3	X4	Y4	Z4	X5	Y5	Z5	X6	Y6	Z6	X7	Y7	Z7	X8	Y8	Z8	X9	Y9	Z9	X10	Y10	Z10	X11	Y11	Z11	X12	Y12	Z12	X13	Y13	Z13	X14	Y14	Z14	X15	Y15	Z15	X16	Y16	Z16	X17	Y17	Z17	X18	Y18	Z18	
78	0.65	123.059	-60.6206	-1.65547	116.751	-87.2861	-20.6648	117.039	-102.221	-51.105	136.83	-106.852	-68.6425	134.508	-55.1484	-73.9924	128.914	-82.9084	-89.6709	134.267	-100.663	-60.1366	153.482	-61.5508	-77.5276	153.881	-94.7326	-83.8666	149.563	-104.125	-48.4428	174.755	-71.6969	-74.6743	169.071	-102.827	-71.7156	159.044	-105.056	-40.48	190.916	-75.6028	-64.0037	183.474	-102.059	-60.966	164.864	-101.981	-33.559	177.944	-35.2882	-27.6963	176.541	-29.7724	3.07771	148.112	-31.2591	-14.7817	
79	0.658333	123.039	-63.2605	-3.10927	118.155	-88.5845	-23.1974	121.397	-100.882	-44.4177	137.266	-104.884	-67.7789	129.579	-57.1154	-77.4239	133.524	-85.627	-87.7722	132.184	-100.546	-59.1268	150.392	-60.9271	-78.0213	152.784	-92.6707	-84.1036	149.464	-100.975	-44.4202	171.449	-65.8146	-72.023	168.375	-99.0389	-72.8577	161.139	-102.017	-38.9999	191.918	-69.793	-64.1726	180.863	-95.9035	-63.6154	168.174	-100.074	-31.3893	174.536	-32.4162	-25.8712	172.451	-27.7901	1.05059	142.903	-31.6837	-11.9151	
80	0.666667	123.271	-61.2871	-1.30919	120.839	-87.1935	-25.7941	122.818	-98.8834	-48.4817	134.564	-104.572	-71.8238	132.474	-53.2808	-77.1002	132.114	-82.1871	-88.017	135.449	-97.0645	-57.7952	151.988	-58.4527	-78.9245	156.189	-89.6342	-83.9498	151.189	-99.216	-48.3172	171.782	-60.225	-72.9845	170.143	-91.3942	-74.9985	162.126	-99.1106	-41.9349	188.188	-61.7289	-63.3906	183.992	-92.2358	-63.0888	170.298	-93.6637	-32.4036	171.069	-28.4444	-25.5335	171.616	-25.1955	2.51572	140.92	-29.6369	-10.9884	
81	0.675	124.911	-59.5991	-1.89442	124.878	-83.5029	-24.9494	124.293	-94.0933	-49.741	139.518	-94.0123	-70.8711	128.265	-48.4815	-76.242	132.353	-76.039	-88.0602	135.887	-91.0613	-56.6721	153.533	-51.9056	-81.9222	157.755	-83.7874	-82.7387	152.578	-92.4433	-49.3597	172.634	-53.2624	-75.7284	170.263	-85.2455	-76.1304	168.069	-92.1169	-42.3029	188.622	-53.843	-65.4974	187.292	-83.1892	-65.8451	173.388	-90.5057	-37.659	170.544	-22.6693	-23.3578	173.436	-18.1769	4.44393	143.082	-24.4104	-11.5215	
82	0.683333	123.839	-55.9008	-3.53813	126.931	-76.5897	-27.3516	128.848	-83.7527	-54.0318	141.16	-83.8477	-75.8498	131.731	-39.6002	-77.0464	135.148	-64.3302	-90.3033	141.059	-79.8482	-62.5727	150.555	-40.7391	-79.724	154.028	-69.5397	-89.2487	155.228	-82.6282	-49.9071	170.861	-42.5936	-77.3492	171.412	-73.4724	-77.6151	168.968	-81.8692	-48.4465	187.547	-39.807	-64.1486	188.986	-70.7219	-68.8853	176.313	-81.0845	-42.5433	170.161	-13.6105	-27.9365	168.886	-10.3704	1.90825	139.624	-19.4077	-13.068	
83	0.691667	128.153	-45.0782	-3.63257	126.883	-67.4173	-30.9811	127.939	-73.7937	-55.1908	140.883	-71.8713	-79.4622	131.205	-26.0115	-75.5915	134.005	-53.8551	-92.5879	137.612	-69.6222	-62.6883	152.124	-27.1504	-80.8633	157.249	-57.0248	-90.6684	157.181	-71.0301	-56.0722	169.151	-28.5318	-75.5832	175.575	-57.567	-82.2311	166.531	-69.1495	-49.3407	187.396	-30.1573	-68.8576	186.012	-58.8669	-70.4164	176.611	-68.6946	-44.603	171.339	-1.54177	-26.797	172.513	-1.49927	5.71597	139.645	-7.63769	-12.432	
84	0.7	128.211	-34.883	-5.41258	128.682	-53.1611	-32.3262	127.284	-61.6043	-60.3402	141.448	-58.3058	-79.1419	125.796	-13.7825	-78.1838	135.668	-37.835	-94.7783	139.702	-55.7473	-67.0705	149.481	-15.733	-80.7563	157.155	-47.334	-91.5865	159.74	-58.0273	-55.8143	168.134	-17.5036	-80.7569	178.417	-46.8745	-83.5264	167.004	-56.0874	-53.0795	188.664	-14.3448	-66.3656	191.169	-45.3022	-73.9246	176.777	-55.3064	-47.9578	165.99	8.18713	-29.6331	170.654	9.10095	1.50972	141.257	1.70157	-14.4021	
85	0.708333	128.421	-23.0154	-7.79851	125.612	-41.3543	-33.1597	128.369	-44.1937	-60.7792	139.829	-42.7554	-82.5899	128.39	0.513683	-75.5774	134.039	-20.0223	-99.1985	141.128	-44.5386	-74.6874	148.302	-3.25545	-85.6186	158.403	-29.1975	-96.0339	158.451	-46.3677	-59.034	173.33	-3.56404	-81.5894	174.452	-31.6391	-87.0088	171.931	-43.141	-53.0995	188.125	-4.14903	-70.9542	189.965	-31.6913	-76.4012	175.58	-41.491	-47.7074	167.877	19.1269	-26.0722	172.326	17.2482	5.08168	142.746	12.696	-9.69713	
86	0.716667	127.687	-11.0974	-7.49486	122.177	-26.1372	-33.2362	122.835	-23.8432	-64.6534	138.976	-18.907	-83.3642	128.846	14.1409	-78.6253	134.155	-3.23896	-100.209	145.87	-35.151	-83.7663	151.087	13.5651	-83.9763	158.437	-15.8977	-97.7552	157.563	-33.5829	-63.6531	173.192	9.99066	-83.5538	173.105	-19.7149	-87.462	166.625	-29.6777	-55.9758	188.109	9.45579	-70.3633	186.63	-18.6067	-78.7054	177.256	-31.8788	-52.642	170.53	30.2206	-27.971	173.854	30.766	3.9407	142.163	25.0938	-12.5919	
87	0.725	130.145	-0.407687	-5.6068	123.737	-8.49077	-37.6102	123.007	-6.78676	-66.5923	142.191	2.77254	-85.4762	130.933	27.9633	-78.3786	134.524	10.7325	-101.508	141.643	-21.3125	-93.39	149.647	27.0308	-86.3726	154.381	0.15292	-99.6347	160.445	-20.6202	-70.0775	170.924	24.6107	-83.3456	175.994	-5.29475	-89.3399	169.188	-17.7997	-60.062	190.476	23.2345	-72.2435	187.804	-4.142	-79.7507	179.748	-18.3354	-50.7417	172.522	44.3553	-25.7172	174.394	38.9311	1.70504	144.048	34.2986	-9.40337	
88	0.733333	130.635	10.3759	-6.16785	121.302	1.80688	-38.2784	124.296	7.39477	-64.6538	143.349	16.4359	-83.1727	132.658	41.2051	-77.6879	137.259	21.8442	-103.932	141.79	-9.26184	-92.7255	154.005	41.6963	-86.7307	157.416	15.7982	-102.144	157.727	-8.98463	-72.0724	169.148	35.9059	-84.6546	172.978	6.5294	-90.7844	170.506	-5.65908	-58.1214	188.286	35.7707	-72.1241	188.571	5.83631	-81.3243	177.097	-6.60955	-51.6946	171.146	53.037	-29.9749	173.675	49.1872	-0.0139759	143.46	46.2999	-11.4419	
89	0.741667	130.391	24.231	-12.616	123.042	14.1248	-39.5687	122.442	19.5778	-69.0438	141.215	26.1009	-84.142	131.766	53.4225	-78.7144	131.843	37.5142	-103.958	145.018	4.0039	-95.0853	154.368	54.1339	-85.2011	155.401	26.4437	-103.089	155.447	4.62917	-72.8488	170.873	48.5957	-85.7784	175.61	21.215	-93.5713	167.087	5.90446	-64.5414	192.279	45.66	-74.9422	187.605	19.5177	-84.5076	178.648	2.9689	-57.4946	176.821	63.6638	-27.0708	179.626	58.027	-0.442824	143.557	58.2546	-14.1297	
90	0.75	129.573	33.0877	-12.1596	121.417	24.9009	-43.5897	121.755	29.36	-72.767	141.111	34.6044	-90.959	129.915	67.2522	-80.4798	135.666	50.9467	-104.337	140.558	19.2758	-96.3867	155.642	66.7643	-84.5288	154.835	39.7153	-104.007	156.961	15.627	-77.6762	175.407	61.0432	-84.2452	172.976	29.6613	-93.6981	168.361	17.6418	-63.0973	191.911	55.4404	-74.3129	189.75	27.0414	-84.3602	178.093	15.6729	-59.2289	176.199	73.3229	-30.7111	178.124	64.4954	3.31726	145.117	68.727	-13.7115	
91	0.758333	133.347	44.5797	-14.5207	121.834	32.2136	-45.4656	123.068	30.0964	-68.8117	136.112	34.8784	-93.2999	136.805	80.0764	-79.5992	134.087	59.5181	-103.906	138.646	32.7606	-86.6941	157.097	75.6373	-86.4753	155.264	46.2268	-103.538	155.286	25.4781	-75.0966	175.197	69.1871	-86.492	174.159	37.2699	-95.1166	166.245	26.4622	-66.9934	196.789	62.2486	-76.0448	186.353	34.3053	-84.9079	176.26	24.5783	-59.3712	182.042	81.2583	-31.1712	184.922	71.7734	1.09293	150.729	76.157	-11.5397	
92	0.766667	132.787	54.8013	-16.9077	126.915	41.751	-44.1331	121.012	39.1492	-70.8103	137.54	43.2166	-91.7305	137.792	90.2205	-78.8697	134.859	69.2195	-102.893	139.185	43.5921	-82.3341	159.748	85.6115	-86.053	153.451	57.8339	-103.194	157.335	34.5957	-77.5287	176.743	76.8981	-85.6814	174.042	50.1468	-98.2847	166.966	34.1202	-63.8608	196.618	67.7788	-79.9935	186.124	44.5192	-88.4428	172.722	32.9629	-58.8875	187.628	86.355	-29.4843	190.679	75.8801	1.9864	156.217	83.2961	-12.0296	
93	0.775	135.061	63.2548	-15.7125	124.133	49.172	-43.7254	121.983	51.5033	-73.947	132.473	51.9435	-96.3154	142.863	99.4367	-76.9737	135.739	81.3585	-101.691	140.155	52.1487	-80.6708	161.892	94.1679	-82.855	158.173	64.5238	-103.232	152.667	42.8393	-75.4235	180.362	82.6816	-85.8405	173.443	57.7541	-97.4803	162.807	41.1234	-71.4216	197.542	72.2646	-77.6089	186.216	47.9978	-88.3658	172.788	38.9932	-59.178	193.667	90.1296	-30.3912	189.671	77.6189	3.32915	160.493	93.3752	-12.963	
94	0.783333	138.126	68.9185	-12.0396	124.402	57.8351	-40.7275	120.165	60.1132	-72.4334	136.154	60.4901	-95.486	151.507	106.239	-76.8731	141.662	87.4086	-100.282	134.892	61.2764	-82.8587	167.853	98.9768	-83.6569	157.462	72.0868	-101.907	150.977	48.7531	-74.5603	185.188	86.3965	-85.7029	174.3	60.9567	-97.0436	163.606	43.2654	-70.2311	197.721	74.5564	-73.8053	182.602	53.7696	-88.1229	169.072	43.4122	-57.641	197.767	89.0218	-29.2605	196.563	79.2656	-1.74862	165.256	96.9729	-7.41827	
95	0.791667	137.932	79.0064	-12.9281	122.697	68.8117	-40.5536	120.633	69.8062	-73.0016	135.797	67.3481	-91.1725	156.207	113.767	-73.1595	145.432	96.2381	-98.9951	134.894	70.4616	-83.1087	176.218	100.406	-81.5502	158.043	79.4072	-102.041	149.437	54.3135	-76.5635	186.979	87.8277	-82.8488	170.995	65.2747	-96.6994	158.494	48.7165	-69.4908	198.565	73.3683	-76.2902	179.255	52.7932	-86.9595	167.302	45.952	-60.0808	201.265	89.8306	-27.7472	200.591	78.4746	-0.291397	175.461	99.6472	-11.6438	
96	0.8	140.487	87.3392	-12.4622	128.746	78.2419	-42.2142	122.731	78.0775	-67.7332	134.794	73.6957	-91.6928	162.717	117.834	-74.0291	147.902	105.522	-97.8876	137.914	75.3731	-83.8434	176.034	102.778	-85.799	160.104	80.5743	-101.686	144.501	61.1986	-77.5196	190.721	83.697	-83.2722	166.132	63.8887	-94.5844	151.613	56.196	-66.4187	202.092	66.7421	-77.5024	174.034	56.0075	-86.356	160.807	46.8135	-61.1518	203.487	85.0227	-27.3074	200.976	76.5096	-1.15892	180.005	99.5556	-7.41665	
97	0.808333	145.878	93.8522	-12.8651	132.284	87.3268	-40.1166	121.788	89.0931	-66.7639	136.134	79.9598	-90.6414	175.332	116.235	-75.4841	155.786	106.063	-97.4734	138.089	83.0974	-81.6913	182.499	102.096	-86.9426	159.81	86.9229	-101.163	142.398	67.4031	-73.8111	190.548	80.3617	-87.9517	167.486	64.8551	-96.7212	150.875	56.4281	-67.7686	197.654	63.5327	-77.9697	170.175	51.0795	-86.5717	156.163	49.948	-57.2862	209.008	77.4543	-32.1387	205.762	70.8851	-3.06137	187.71	99.5658	-10.9567	
98	0.816667	153.748	98.3851	-9.88701	134.486	95.2455	-37.1362	130.268	95.5005	-65.0384	137.027	85.9763	-91.9588	185.38	112.379	-77.1159	164.271	104.9	-98.6511	137.929	91.3436	-80.711	190.575	95.3816	-87.8577	161.135	85.211	-101.297	142.009	75.288	-76.1141	193.707	74.1787	-85.5495	166.18	66.5979	-96.8347	148.008	62.3009	-69.6807	197.845	52.7812	-78.7912	166.438	56.2286	-87.7748	153.328	56.193	-60.4939	209.548	71.0094	-30.8049	206.691	61.3943	-1.51953	195.461	97.3261	-14.087	
99	0.825	164.308	102.442	-11.8	143.837	100.527	-37.8873	137.081	102.545	-67.6256	140.672	90.6687	-92.2609	193.059	110.073	-77.7786	172.442	108.026	-99.3104	144.068	95.3851	-81.0481	194.993	92.3506	-88.2097	167.461	86.3726	-101.718	144.009	81.1767	-74.3564	192.993	69.1494	-87.6791	163.136	64.8611	-95.8129	147.089	64.6274	-67.5414	193.795	47.3984	-81.5994	164.041	50.32	-89.0004	149.066	60.8435	-62.3848	210.824	60.9174	-35.0583	208.114	52.7999	-3.47857	202.456	89.7295	-14.2405	
100	0.833333	174.958	100.535	-11.6715	152.258	107.932	-37.3457	143.501	108.535	-63.4792	147.779	92.1207	-87.4376	202.062	99.8581	-80.0994	177.86	104.762	-101.111	151.779	98.4638	-85.5278	199.174	82.3946	-88.3275	169.616	83.8504	-102.15	148.126	84.1541	-75.316	194.459	61.9226	-87.1777	163.964	68.159	-97.3742	147.74	72.2504	-65.428	190.697	43.1009	-78.5739	166.333	53.0709	-92.2631	148.482	62.446	-65.2422	209.982	54.2758	-33.9422	206.765	44.8903	-5.74304	211.28	80.8788	-15.677	
101	0.841667	185.908	100.798	-14.769	165.079	106.612	-39.0948	155.556	112.751	-67.1633	151.855	100.679	-86.7155	210.376	95.7914	-82.8761	188.138	102.173	-101.724	158.329	101.643	-82.634	202.825	75.3879	-91.296	176.711	84.1979	-102.89	153.434	88.8774	-71.813	194.806	59.6608	-88.5956	166.127	68.3783	-97.5198	150.508	77.6642	-68.8375	187.332	39.9866	-77.1874	164.191	53.2543	-91.8956	149.008	68.4038	-68.1199	208.098	43.1405	-32.6969	204.272	40.5642	-4.55295	215.844	69.963	-17.7513	
